<svg width="214" height="92" viewBox="0 0 214 92" fill="none" xmlns="http://www.w3.org/2000/svg"><path d="M19.5311 19.2117C16.5607 17.8047 13.6425 17.8047 13.3819 17.8047C10.7243 17.8047 8.17081 16.2414 8.17081 13.2189C8.17081 9.88382 10.5158 8.16415 13.3819 8.16415C16.0917 8.16415 18.3846 9.57116 18.4888 12.5415C18.4888 12.6978 18.7494 12.9584 19.062 12.9584H25.5759C25.9407 12.9584 26.2013 12.6978 26.1492 12.5415C26.0449 5.45438 20.5211 0.660156 13.3819 0.660156C6.7117 0.660156 0.40625 5.40229 0.40625 13.219C0.40625 18.0653 2.85548 21.7652 7.18071 23.7454C10.2032 25.1524 13.0171 25.1524 13.3819 25.1524C15.7269 25.2566 18.593 27.1326 18.593 30.2072C18.593 32.9691 16.1438 34.8451 13.3819 34.8451C13.3819 34.8451 13.3819 34.8451 13.3298 34.8451V42.3491C13.3819 42.3491 13.3819 42.3491 13.3819 42.3491C20.0522 42.3491 26.3055 38.0239 26.3055 30.2072C26.3055 25.3087 23.9084 21.2441 19.5311 19.2117Z" fill="black"/><path d="M41.6273 0.660156H28.1305C27.8699 0.660156 27.6094 0.92071 27.6094 1.12915V8.3205H35.4261H41.6273C42.5653 8.3205 47.7764 8.58106 47.7764 13.1668C47.7764 17.7526 42.6695 17.8568 41.6273 17.8568H35.4261H27.6094V41.8801C27.6094 42.0885 27.8699 42.3491 28.1305 42.3491H34.9049C35.2697 42.3491 35.4261 42.0885 35.4261 41.8801V25.5693H41.6273C42.6174 25.5693 55.6973 25.413 55.6973 13.1668C55.6973 0.920719 43.2948 0.660156 41.6273 0.660156Z" fill="black"/><path d="M94.4687 17.6484H78.1058V8.21628H89.935V0.660156H70.706C70.3934 0.660156 70.1328 0.92071 70.1328 1.12915V41.8801C70.1328 42.0885 70.3934 42.3491 70.706 42.3491H72.8947H78.0537H78.1058V25.2045H94.4687C94.7814 25.2045 95.0419 24.9439 95.0419 24.7355V18.1174C95.0419 17.8568 94.7814 17.6484 94.4687 17.6484Z" fill="black"/><path d="M120.26 21.6089C120.26 19.4202 118.541 17.6484 116.352 17.6484C114.163 17.6484 112.444 19.4202 112.444 21.6089C112.444 23.7454 114.163 25.5172 116.352 25.5172C118.541 25.5172 120.26 23.7454 120.26 21.6089ZM136.415 21.4525C136.415 11.0824 129.692 0.660156 116.404 0.660156C102.907 0.660156 96.2891 11.0824 96.2891 21.4525C96.2891 31.8747 102.907 42.3491 116.404 42.3491C129.692 42.3491 136.415 31.8748 136.415 21.4525ZM128.598 21.6089C128.598 28.3312 124.481 35.0535 116.404 35.0535C108.223 35.0535 104.158 28.3312 104.158 21.6089C104.158 14.7823 108.223 8.00784 116.404 8.00784C124.481 8.00784 128.598 14.7823 128.598 21.6089Z" fill="black"/><path d="M166.851 41.6716C164.246 35.8873 161.432 30.1551 158.826 24.2665C162.995 22.7553 166.486 19.4202 166.486 13.0626C166.486 0.764361 154.761 0.660156 152.416 0.660156H138.92C138.659 0.660156 138.398 0.92071 138.398 1.12915V8.21628H146.319H152.416C153.667 8.21628 158.565 8.47681 158.565 13.0626C158.565 17.6484 154.136 17.8568 152.416 17.8568H146.319H138.398V41.8801C138.398 42.0885 138.659 42.3491 138.92 42.3491H145.746C146.059 42.3491 146.319 42.0885 146.319 41.8801V25.5172H150.801L158.409 42.0364C158.461 42.1928 158.774 42.3491 158.93 42.3491H166.382C166.799 42.3491 167.007 42.0364 166.851 41.6716Z" fill="black"/><path d="M205.671 32.2916H213.592V1.12915C213.592 0.92071 213.383 0.660156 213.019 0.660156H206.14C205.932 0.660156 205.671 0.816499 205.567 0.972839L191.34 31.51L176.384 0.972839C176.332 0.816509 176.02 0.660156 175.863 0.660156H168.88C168.516 0.660156 168.359 0.92071 168.359 1.12915V41.8801C168.359 42.0885 168.516 42.3491 168.88 42.3491H175.759C176.072 42.3491 176.332 42.0885 176.332 41.8801V18.4822L187.641 40.3689C187.693 40.5252 188.005 40.6815 188.162 40.6815H194.571C194.728 40.6815 194.988 40.5252 195.04 40.3689L205.671 19.0554V32.2916Z" fill="black"/><path d="M50.9545 50.3125H44.1279C43.8152 50.3125 43.5547 50.5731 43.5547 50.7815V67.1444H51.5277V57.9207C60.595 57.4517 67.3174 61.2558 67.3174 71.157C67.3174 84.0284 56.5825 84.5495 51.5277 84.3411V75.1695H43.5547V91.5324C43.5547 91.7408 43.8152 92.0014 44.1279 92.0014H50.9545C61.3246 92.0014 75.3425 88.979 75.3425 71.157C75.3425 52.6575 61.1161 50.3125 50.9545 50.3125Z" fill="black"/><path d="M109.686 91.3761L93.8442 50.6252C93.6878 50.2083 92.9583 50.2083 92.802 50.6252L77.0123 91.3761C76.8559 91.6888 77.0644 92.0014 77.5334 92.0014H84.6726C84.881 92.0014 85.1416 91.8972 85.1937 91.6887L93.323 68.4472L101.557 91.6887C101.609 91.8972 101.869 92.0014 102.026 92.0014H109.217C109.582 92.0014 109.842 91.6887 109.686 91.3761Z" fill="black"/><path d="M119.95 65.4247V91.5324C119.95 91.7409 120.158 92.0014 120.523 92.0014H127.245C127.61 92.0014 127.871 91.7409 127.871 91.5324V65.4247H119.95ZM111.925 57.4517H135.844C136.209 57.4517 136.417 57.2433 136.417 56.9827V50.7815C136.417 50.5731 136.209 50.3125 135.844 50.3125H111.925C111.612 50.3125 111.352 50.5731 111.352 50.7815V56.9827C111.352 57.2433 111.612 57.4517 111.925 57.4517Z" fill="black"/><path d="M170.397 91.3761L154.555 50.6252C154.399 50.2083 153.669 50.2083 153.513 50.6252L137.723 91.3761C137.567 91.6888 137.775 92.0014 138.244 92.0014H145.384C145.592 92.0014 145.853 91.8972 145.905 91.6887L154.034 68.4472L162.268 91.6887C162.32 91.8972 162.58 92.0014 162.737 92.0014H169.928C170.293 92.0014 170.553 91.6887 170.397 91.3761Z" fill="black"/></svg>
